<svg width="18" height="18" fill="none" xmlns="http://www.w3.org/2000/svg"><path fill="#1C1C1D" d="M0 0h18v18H0z"></path><path fill-rule="evenodd" clip-rule="evenodd" d="M9 2.23a6.77 6.77 0 1 0 0 13.54A6.77 6.77 0 0 0 9 2.23ZM1 9a8 8 0 1 1 16 0A8 8 0 0 1 1 9Z" fill="#B3B3B3"></path><path d="M6.23 8.385a.923.923 0 1 0 0-1.846.923.923 0 0 0 0 1.846ZM11.77 8.385a.923.923 0 1 0 0-1.846.923.923 0 0 0 0 1.846Z" fill="#B3B3B3"></path><path fill-rule="evenodd" clip-rule="evenodd" d="M5.491 10.314c.294-.17.67-.07.841.223a3.084 3.084 0 0 0 5.336 0 .615.615 0 1 1 1.064.618 4.317 4.317 0 0 1-7.464 0 .615.615 0 0 1 .223-.841Z" fill="#B3B3B3"></path></svg>