<svg width="24" height="24" fill="currentColor" xmlns="http://www.w3.org/2000/svg"><g clip-path="url(#ic_send_svg__a)"><path d="M19.437 9.544 5.972 3.209a2.059 2.059 0 0 0-2.286.324 2.06 2.06 0 0 0-.56 2.246c.014.032 3.31 6.223 3.31 6.223S3.2 18.19 3.189 18.222a2.058 2.058 0 0 0 .562 2.245 2.051 2.051 0 0 0 2.282.322l13.405-6.33A2.69 2.69 0 0 0 21 12.002a2.69 2.69 0 0 0-1.563-2.457zM4.522 5.224a.558.558 0 0 1 .167-.577.558.558 0 0 1 .629-.087L18.8 10.902c.18.084.328.203.443.347H7.735L4.522 5.223zM18.8 13.101 5.382 19.437a.554.554 0 0 1-.629-.087.555.555 0 0 1-.167-.576l3.152-6.025h11.51a1.236 1.236 0 0 1-.449.353z" fill-opacity="0.6"></path></g><defs><clipPath id="ic_send_svg__a"><path fill="#fff" d="M0 0h24v24H0z"></path></clipPath></defs></svg>