<svg width="46" height="46" fill="none" xmlns="http://www.w3.org/2000/svg"><g clip-path="url(#ic_q_entry_chatd_svg__a)"><g clip-path="url(#ic_q_entry_chatd_svg__b)"><path d="M29.72 34.82H6.62c-1.52 0-2.76 1.3-2.76 2.91s1.23 2.91 2.76 2.91h23.1c.95 0 1.72-.81 1.72-1.82V33c0 1-.77 1.82-1.72 1.82Z" fill="#fff"></path><path d="M3.86 38.09V9.18c0-1.81 1.39-3.27 3.1-3.27h22.75c.95 0 1.72.81 1.72 1.82V33c0 1-.77 1.82-1.72 1.82H3.86v3.27Z" fill="#6A80FF"></path><path d="M29.72 41.55c1.43 0 2.59-1.22 2.59-2.73V7.73c0-1.5-1.16-2.73-2.59-2.73H6.96C4.78 5 3 6.88 3 9.18v28.91c0 .12.02.23.06.34.31 1.77 1.79 3.12 3.56 3.12M4.72 9.18c0-1.3 1.01-2.36 2.24-2.36h22.75c.48 0 .86.41.86.91V33c0 .5-.39.91-.86.91H8.86V14.67c0-.5-.39-.91-.86-.91s-.86.41-.86.91v19.24h-.52c-.69 0-1.34.21-1.9.57V9.18Zm0 28.55c0-1.1.85-2 1.9-2h23.1c.3 0 .59-.06.86-.16v3.25c0 .5-.39.91-.86.91H6.62c-1.05 0-1.9-.9-1.9-2Z" fill="#000"></path><path d="M18.41 14.59v9.01l-3.98 4.04c-.79.8-.22 2.15.9 2.15h21.42c.9 0 1.63-.73 1.63-1.63V14.59c0-.9-.73-1.63-1.63-1.63H20.03c-.9 0-1.63.73-1.63 1.63h.01Z" fill="#62EAFA"></path><path d="M31.8 21.37H30v-5.29c0-.59-.73-.88-1.13-.44l-4.61 4.89c-.29.32-.07.84.37.84h1.8v5.29c0 .59.73.88 1.13.44l4.61-4.89c.29-.32.07-.84-.37-.84Z" fill="#FFDD74"></path><path d="M36.67 30.56H15.33c-.84 0-1.56-.48-1.88-1.25-.32-.77-.16-1.62.43-2.22l3.76-3.81v-8.69c0-1.32 1.08-2.4 2.4-2.4h16.64c1.32 0 2.4 1.08 2.4 2.4v13.57c0 1.32-1.08 2.4-2.4 2.4h-.01ZM20.03 13.73a.85.85 0 0 0-.85.85v9.01c0 .2-.08.4-.22.54l-3.98 4.04c-.21.21-.14.44-.1.53.04.09.16.3.45.3h21.34c.47 0 .85-.38.85-.85V14.58a.85.85 0 0 0-.85-.85H20.03Z" fill="#000"></path><path d="M27 27.44c-.16 0-.33-.03-.49-.09-.52-.2-.86-.69-.86-1.25v-3.94h-.78a1.2 1.2 0 0 1-1.11-.73c-.19-.44-.11-.96.21-1.31l3.99-4.37c.38-.41.96-.55 1.48-.35.52.2.86.69.86 1.25v3.94h.78c.48 0 .92.28 1.11.73.19.44.11.96-.21 1.31L27.99 27c-.26.29-.62.44-.99.44Zm-1.66-6.96h.88c.49 0 .89.4.89.89v4.73l3.51-3.84h-.88c-.49 0-.89-.4-.89-.89v-4.73l-3.51 3.84ZM39.41 12.64a.773.773 0 0 1-.55-1.32l.82-.82c.3-.3.79-.3 1.09 0 .3.3.3.79 0 1.09l-.82.82a.78.78 0 0 1-.55.23h.01ZM35.49 10.53c-.07 0-.13 0-.2-.03a.777.777 0 0 1-.55-.95l.3-1.12a.777.777 0 0 1 1.5.4l-.3 1.12a.76.76 0 0 1-.75.57v.01ZM41.52 16.56a.79.79 0 0 1-.75-.57c-.11-.41.13-.84.55-.95l1.12-.3c.41-.11.84.13.95.55.11.41-.13.84-.55.95l-1.12.3c-.07.02-.13.03-.2.03v-.01Z" fill="#000"></path></g></g><defs><clipPath id="ic_q_entry_chatd_svg__a"><path fill="#fff" d="M0 0h46v46H0z"></path></clipPath><clipPath id="ic_q_entry_chatd_svg__b"><path fill="#fff" transform="translate(3 5)" d="M0 0h40.41v36.55H0z"></path></clipPath></defs></svg>