<svg width="18" height="18" fill="none" xmlns="http://www.w3.org/2000/svg"><path fill="#1C1C1D" d="M0 0h18v18H0z"></path><path d="M15.073 12.718a7.087 7.087 0 0 0 1.047-3.717 7.087 7.087 0 0 0-1.047-3.717l-.004-.006a7.12 7.12 0 0 0-12.138 0l-.004.006a7.122 7.122 0 0 0 0 7.434l.004.006a7.121 7.121 0 0 0 12.138 0l.004-.006ZM9.91 14.901c-.136.13-.292.238-.462.319a1.043 1.043 0 0 1-.896 0 2.18 2.18 0 0 1-.807-.71 6.364 6.364 0 0 1-.92-1.996 34.778 34.778 0 0 1 4.35 0 8.032 8.032 0 0 1-.39 1.074c-.204.49-.502.935-.875 1.313ZM2.694 9.4h2.872c.018.801.105 1.6.26 2.386-.786.07-1.569.164-2.35.285A6.277 6.277 0 0 1 2.694 9.4Zm.782-3.471c.781.12 1.564.216 2.35.285a14.104 14.104 0 0 0-.26 2.386H2.694c.058-.938.325-1.85.782-2.671ZM8.09 3.1a1.73 1.73 0 0 1 .462-.32 1.043 1.043 0 0 1 .896 0c.324.167.602.41.807.712.42.606.732 1.282.92 1.995a34.782 34.782 0 0 1-4.35 0c.104-.367.234-.726.39-1.074.204-.49.502-.936.875-1.313Zm7.216 5.5h-2.872c-.018-.801-.105-1.6-.26-2.386.786-.07 1.569-.164 2.35-.285.457.82.725 1.733.782 2.67ZM6.63 11.725A13.23 13.23 0 0 1 6.366 9.4h5.268c-.019.78-.107 1.559-.263 2.324a35.508 35.508 0 0 0-4.74 0Zm4.74-5.448c.156.765.245 1.543.264 2.324H6.366c.019-.781.107-1.559.263-2.324a35.494 35.494 0 0 0 4.74 0ZM12.434 9.4h2.872a6.276 6.276 0 0 1-.782 2.67 35.621 35.621 0 0 0-2.35-.284c.154-.787.241-1.585.26-2.386Zm1.61-4.207c-.683.098-1.367.176-2.054.234a9.119 9.119 0 0 0-.476-1.344 5.678 5.678 0 0 0-.662-1.127 6.32 6.32 0 0 1 3.192 2.237Zm-9.513-.662a6.318 6.318 0 0 1 2.617-1.575l-.045.058A7.303 7.303 0 0 0 6.01 5.428a35.844 35.844 0 0 1-2.055-.234c.176-.234.368-.455.575-.662Zm-.575 8.276a34.5 34.5 0 0 1 2.054-.234c.123.46.282.909.476 1.344.177.4.399.778.662 1.127a6.318 6.318 0 0 1-3.192-2.237Zm9.513.662a6.317 6.317 0 0 1-2.617 1.575l.045-.058a7.303 7.303 0 0 0 1.092-2.413c.686.058 1.371.136 2.055.234a6.372 6.372 0 0 1-.575.662Z" fill="#B3B3B3" stroke="#B3B3B3" stroke-width="0.2"></path></svg>