<svg xmlns="http://www.w3.org/2000/svg" xmlns:xlink="http://www.w3.org/1999/xlink" viewBox="0 0 540 540" width="540" height="540" preserveAspectRatio="xMidYMid meet" style="width: 100%; height: 100%; transform: translate3d(0px, 0px, 0px); content-visibility: visible;"><defs><clipPath id="__lottie_element_2"><rect width="540" height="540" x="0" y="0"></rect></clipPath></defs><g clip-path="url(#__lottie_element_2)"><g transform="matrix(1,0,0,1,434.93084716796875,181.32598876953125)" opacity="1" style="display: block;"><g opacity="1" transform="matrix(0.5005199909210205,0,0,0.5005199909210205,-126.25,88.25)"><path fill="rgb(255,255,255)" fill-opacity="1" d=" M0,-22.75 C12.55572509765625,-22.75 22.75,-12.55572509765625 22.75,0 C22.75,12.55572509765625 12.55572509765625,22.75 0,22.75 C-12.55572509765625,22.75 -22.75,12.55572509765625 -22.75,0 C-22.75,-12.55572509765625 -12.55572509765625,-22.75 0,-22.75z"></path><path stroke-linecap="butt" stroke-linejoin="miter" fill-opacity="0" stroke-miterlimit="4" stroke="rgb(190,157,255)" stroke-opacity="1" stroke-width="0" d=" M0,-22.75 C12.55572509765625,-22.75 22.75,-12.55572509765625 22.75,0 C22.75,12.55572509765625 12.55572509765625,22.75 0,22.75 C-12.55572509765625,22.75 -22.75,12.55572509765625 -22.75,0 C-22.75,-12.55572509765625 -12.55572509765625,-22.75 0,-22.75z"></path></g></g><g transform="matrix(1,0,0,1,394.93084716796875,181.32598876953125)" opacity="1" style="display: block;"><g opacity="1" transform="matrix(0.5005199909210205,0,0,0.5005199909210205,-126.25,88.25)"><path fill="rgb(190,157,255)" fill-opacity="1" d=" M0,-22.75 C12.55572509765625,-22.75 22.75,-12.55572509765625 22.75,0 C22.75,12.55572509765625 12.55572509765625,22.75 0,22.75 C-12.55572509765625,22.75 -22.75,12.55572509765625 -22.75,0 C-22.75,-12.55572509765625 -12.55572509765625,-22.75 0,-22.75z"></path><path stroke-linecap="butt" stroke-linejoin="miter" fill-opacity="0" stroke-miterlimit="4" stroke="rgb(190,157,255)" stroke-opacity="1" stroke-width="0" d=" M0,-22.75 C12.55572509765625,-22.75 22.75,-12.55572509765625 22.75,0 C22.75,12.55572509765625 12.55572509765625,22.75 0,22.75 C-12.55572509765625,22.75 -22.75,12.55572509765625 -22.75,0 C-22.75,-12.55572509765625 -12.55572509765625,-22.75 0,-22.75z"></path></g></g><g transform="matrix(0.9730905294418335,0.23042304813861847,-0.2523494362831116,1.0656869411468506,380.1260070800781,183.78472900390625)" opacity="1" style="display: block;"><g opacity="1" transform="matrix(0.5005199909210205,0,0,0.5005199909210205,-126.25,88.25)"><path fill="rgb(255,255,255)" fill-opacity="1" d=" M0,-22.75 C12.55572509765625,-22.75 22.75,-12.55572509765625 22.75,0 C22.75,12.55572509765625 12.55572509765625,22.75 0,22.75 C-12.55572509765625,22.75 -22.75,12.55572509765625 -22.75,0 C-22.75,-12.55572509765625 -12.55572509765625,-22.75 0,-22.75z"></path><path stroke-linecap="butt" stroke-linejoin="miter" fill-opacity="0" stroke-miterlimit="4" stroke="rgb(190,157,255)" stroke-opacity="1" stroke-width="0" d=" M0,-22.75 C12.55572509765625,-22.75 22.75,-12.55572509765625 22.75,0 C22.75,12.55572509765625 12.55572509765625,22.75 0,22.75 C-12.55572509765625,22.75 -22.75,12.55572509765625 -22.75,0 C-22.75,-12.55572509765625 -12.55572509765625,-22.75 0,-22.75z"></path></g></g></g></svg>