<svg width="46" height="46" fill="none" xmlns="http://www.w3.org/2000/svg"><g clip-path="url(#ic_q_entry_w_essay_svg__a)"><g clip-path="url(#ic_q_entry_w_essay_svg__b)"><path d="M40.607 11.351a2.22 2.22 0 0 0-3.149 0c-1.128 1.129-1.825 1.684-1.913 1.773l-30.804.07v22.267h12.884c2.02 0 3.95.803 5.38 2.223a7.594 7.594 0 0 1 5.379-2.222h12.884V12.92a2.21 2.21 0 0 0-.653-1.57" fill="#FF7B79"></path><path d="M27.387 10.24a5.263 5.263 0 0 0-4.391 5.185 5.263 5.263 0 0 0-4.392-5.185l-9.41-1.5v22.268l9.41 1.49a5.263 5.263 0 0 1 4.392 5.186 5.263 5.263 0 0 1 4.391-5.186l9.41-1.49V8.741l-9.41 1.49v.009Z" fill="#FFF5F5"></path><path d="m39.028 16.078-6.35 6.35-3.148-3.149 6.35-6.35 3.148 3.149Z" fill="#91DEF5"></path><path d="m32.679 22.428-5.777 2.628 2.628-5.777 3.149 3.149Z" fill="#FFDA8F"></path><path d="M22.996 38.425a.745.745 0 0 1-.741-.741c0-1.42.503-2.796 1.42-3.88a5.983 5.983 0 0 1 3.589-2.037l8.783-1.394V18.3c0-.405.336-.74.741-.74.406 0 .741.335.741.74v12.708a.74.74 0 0 1-.626.732l-9.41 1.49a4.494 4.494 0 0 0-3.765 4.454c0 .406-.336.74-.741.74h.009ZM22.996 16.166a.745.745 0 0 1-.741-.74c0-1.42.503-2.796 1.42-3.88a5.983 5.983 0 0 1 3.589-2.038l9.418-1.5a.745.745 0 0 1 .865.733v3.263c0 .405-.335.74-.741.74a.745.745 0 0 1-.741-.74v-2.39l-8.554 1.358a4.493 4.493 0 0 0-3.766 4.453c0 .406-.335.741-.74.741h-.01Z" fill="#000"></path><path d="M22.995 38.425a.745.745 0 0 1-.74-.741 4.508 4.508 0 0 0-3.766-4.454l-9.41-1.49a.74.74 0 0 1-.626-.732V8.741a.745.745 0 0 1 .864-.732l9.41 1.49a6.002 6.002 0 0 1 3.59 2.037 6.01 6.01 0 0 1 1.42 3.88v22.268c0 .406-.336.74-.741.74Zm-13.06-8.052 8.783 1.393c1.367.23 2.62.926 3.528 1.967V15.425a4.508 4.508 0 0 0-3.766-4.453L9.935 9.614v20.76ZM26.893 25.797a.771.771 0 0 1-.529-.221.728.728 0 0 1-.15-.829l2.628-5.776a.749.749 0 0 1 .15-.22l7.276-7.276.652-.653a2.942 2.942 0 0 1 2.1-.873c.793 0 1.534.309 2.098.873.564.556.873 1.306.873 2.1 0 .793-.309 1.542-.873 2.098l-3.8 3.8-4.128 4.128a.652.652 0 0 1-.22.15l-5.777 2.628a.752.752 0 0 1-.308.07h.008Zm3.255-6.094-1.755 3.854 3.853-1.755 6.262-6.262 1.57-1.578c.282-.282.432-.653.432-1.05s-.15-.767-.432-1.05a1.467 1.467 0 0 0-1.05-.431c-.397 0-.767.159-1.05.432l-.652.652-7.178 7.179v.009Z" fill="#000"></path><path d="M32.679 23.168a.734.734 0 0 1-.53-.22l-3.148-3.149a.74.74 0 0 1 0-1.049.74.74 0 0 1 1.05 0l3.148 3.148a.74.74 0 0 1 0 1.05.755.755 0 0 1-.53.22h.01ZM39.028 16.819a.734.734 0 0 1-.53-.22l-3.147-3.15a.74.74 0 0 1 0-1.049.74.74 0 0 1 1.049 0l3.148 3.149a.74.74 0 0 1 0 1.05.755.755 0 0 1-.529.22h.009ZM22.996 38.425a.734.734 0 0 1-.53-.22 6.81 6.81 0 0 0-4.85-2.011H4.741A.745.745 0 0 1 4 35.453V13.194c0-.405.335-.74.74-.74h4.454c.406 0 .741.335.741.74 0 .406-.335.741-.74.741H5.481v20.777h12.143c1.993 0 3.871.688 5.38 1.958a8.274 8.274 0 0 1 5.379-1.958h2.901c.406 0 .741.335.741.74 0 .407-.335.742-.74.742h-2.902a6.81 6.81 0 0 0-4.85 2.01.755.755 0 0 1-.53.22h-.008Z" fill="#000"></path><path d="M41.26 36.203H31.258a.745.745 0 0 1-.74-.741c0-.406.334-.741.74-.741h9.26v-21.8c0-.406.335-.74.74-.74.406 0 .741.334.741.74v22.532c0 .405-.335.74-.74.74v.01Z" fill="#000"></path></g></g><defs><clipPath id="ic_q_entry_w_essay_svg__a"><path fill="#fff" d="M0 0h46v46H0z"></path></clipPath><clipPath id="ic_q_entry_w_essay_svg__b"><path fill="#fff" transform="translate(4 8)" d="M0 0h38v30.425H0z"></path></clipPath></defs></svg>