<svg width="16" height="16" fill="none" xmlns="http://www.w3.org/2000/svg"><g clip-path="url(#ic_write_format_svg__a)" fill="#B3B3B3"><path fill-rule="evenodd" clip-rule="evenodd" d="m9.581.137 4.688 4.688a.469.469 0 0 1 .137.331v10.375c0 .26-.21.469-.469.469H2.063a.469.469 0 0 1-.47-.469V.47c0-.26.21-.469.47-.469H9.25c.124 0 .244.05.331.137Zm-7.05.8v14.126H13.47V5.35L9.056.938H2.53ZM8.47 7.532h1.094a.469.469 0 0 1 0 .938H8.469v1.094a.469.469 0 0 1-.938 0V8.469H6.438a.469.469 0 0 1 0-.938H7.53V6.438a.469.469 0 0 1 .938 0V7.53Z"></path><path d="m14.269 4.825-.177.177.177-.177ZM9.58.137l-.176.177.176-.177Zm-7.05 14.926h-.25v.25h.25v-.25Zm0-14.126v-.25h-.25v.25h.25ZM13.47 15.063v.25h.25v-.25h-.25Zm0-9.713h.25v-.103l-.073-.073-.177.176ZM9.056.938 9.233.76 9.159.687h-.103v.25ZM8.469 7.53h-.25v.25h.25v-.25Zm0 .938v-.25h-.25v.25h.25Zm-.938 0h.25v-.25h-.25v.25Zm0-.938v.25h.25v-.25h-.25Zm6.915-2.883L9.758-.039l-.353.353 4.687 4.688.354-.354Zm.21.508a.719.719 0 0 0-.21-.508l-.354.354a.219.219 0 0 1 .064.154h.5Zm0 10.375V5.156h-.5v10.375h.5Zm-.719.719a.719.719 0 0 0 .72-.719h-.5c0 .121-.099.219-.22.219v.5Zm-11.874 0h11.874v-.5H2.063v.5Zm-.72-.719c0 .397.323.719.72.719v-.5a.219.219 0 0 1-.22-.219h-.5Zm0-15.062V15.53h.5V.47h-.5Zm.72-.719a.719.719 0 0 0-.72.719h.5c0-.121.099-.219.22-.219v-.5Zm7.187 0H2.062v.5H9.25v-.5Zm.508.21a.719.719 0 0 0-.508-.21v.5c.058 0 .114.023.155.064l.353-.353ZM2.781 15.063V.938h-.5v14.124h.5Zm10.688-.25H2.53v.5H13.47v-.5Zm-.25-9.462v9.713h.5V5.35h-.5Zm-4.34-4.236 4.413 4.413.354-.353L9.232.76l-.354.353Zm-6.348.073h6.525v-.5H2.53v.5Zm7.031 6.094H8.47v.5h1.094v-.5Zm.72.719a.719.719 0 0 0-.72-.719v.5c.121 0 .22.098.22.219h.5Zm-.72.719a.719.719 0 0 0 .72-.719h-.5c0 .12-.099.219-.22.219v.5Zm-1.093 0h1.094v-.5H8.469v.5Zm.25.844V8.469h-.5v1.094h.5ZM8 10.28a.719.719 0 0 0 .719-.719h-.5c0 .121-.098.22-.219.22v.5Zm-.719-.719c0 .397.322.72.719.72v-.5a.219.219 0 0 1-.219-.22h-.5Zm0-1.093v1.094h.5V8.469h-.5Zm-.843.25H7.53v-.5H6.438v.5ZM5.718 8c0 .397.323.719.72.719v-.5A.219.219 0 0 1 6.218 8h-.5Zm.72-.719a.719.719 0 0 0-.72.719h.5c0-.12.099-.219.22-.219v-.5Zm1.093 0H6.438v.5H7.53v-.5Zm-.25-.843V7.53h.5V6.438h-.5ZM8 5.718a.719.719 0 0 0-.719.72h.5c0-.121.098-.22.219-.22v-.5Zm.719.72A.719.719 0 0 0 8 5.718v.5c.12 0 .219.099.219.22h.5Zm0 1.093V6.438h-.5V7.53h.5Z"></path></g><defs><clipPath id="ic_write_format_svg__a"><path fill="#fff" d="M0 0h16v16H0z"></path></clipPath></defs></svg>