<svg width="30" height="30" fill="none" xmlns="http://www.w3.org/2000/svg"><rect width="30" height="30" rx="6" fill="#424242"></rect><g clip-path="url(#btn_chat_history_svg__a)"><path d="M15.978 11.99v3.17l2.105 2.105a.578.578 0 0 1-.818.818l-2.274-2.274a.578.578 0 0 1-.17-.409v-3.41a.578.578 0 1 1 1.157 0ZM17.674 8h-4.548c-1.21 0-2.405.426-3.361 1.257v-.679a.578.578 0 1 0-1.157 0v2.274c0 .32.261.578.579.578h2.274a.578.578 0 1 0 0-1.156h-1.094a3.983 3.983 0 0 1 2.759-1.118h4.548c2.189 0 3.97 1.781 3.97 3.97v4.548c0 2.189-1.781 3.97-3.97 3.97h-4.548a3.974 3.974 0 0 1-3.97-3.97V15.4A.578.578 0 1 0 8 15.4v2.274C8 20.5 10.3 22.8 13.126 22.8h4.548c2.826 0 5.126-2.3 5.126-5.126v-4.548C22.8 10.3 20.5 8 17.674 8Z" fill="#B3B3B3"></path></g><defs><clipPath id="btn_chat_history_svg__a"><path fill="#fff" transform="translate(8 8)" d="M0 0h14.8v14.8H0z"></path></clipPath></defs></svg>