<svg width="16" height="14" fill="none" xmlns="http://www.w3.org/2000/svg"><g clip-path="url(#ic_superai_svg__a)" filter="url(#ic_superai_svg__b)" fill="#fff"><path d="M10.454 4.093C8.486 3.703 6.948 2.25 6.535.392A.516.516 0 0 0 6.025 0a.516.516 0 0 0-.511.392c-.413 1.858-1.951 3.311-3.92 3.7a.5.5 0 0 0-.414.483.5.5 0 0 0 .415.482C3.563 5.447 5.1 6.9 5.514 8.758c.05.229.263.392.51.392s.46-.163.511-.392c.413-1.858 1.95-3.311 3.919-3.7a.5.5 0 0 0 .415-.483.5.5 0 0 0-.415-.482ZM12.705 7.619c-.661-.13-1.177-.618-1.316-1.242a.367.367 0 0 0-.364-.28.367.367 0 0 0-.363.28c-.139.624-.655 1.111-1.316 1.242a.357.357 0 0 0-.295.344c0 .166.123.309.295.343.66.13 1.177.619 1.316 1.242a.367.367 0 0 0 .363.28.367.367 0 0 0 .364-.28c.139-.623.655-1.111 1.316-1.242A.356.356 0 0 0 13 7.963a.357.357 0 0 0-.295-.344Z"></path></g><defs><clipPath id="ic_superai_svg__a"><path fill="#fff" transform="translate(1)" d="M0 0h12v10H0z"></path></clipPath><filter id="ic_superai_svg__b" x="0" y="0" width="14" height="12" filterUnits="userSpaceOnUse" color-interpolation-filters="sRGB"><feFlood flood-opacity="0" result="BackgroundImageFix"></feFlood><feColorMatrix in="SourceAlpha" values="0 0 0 0 0 0 0 0 0 0 0 0 0 0 0 0 0 0 127 0" result="hardAlpha"></feColorMatrix><feOffset dy="1"></feOffset><feGaussianBlur stdDeviation="0.5"></feGaussianBlur><feComposite in2="hardAlpha" operator="out"></feComposite><feColorMatrix values="0 0 0 0 0 0 0 0 0 0 0 0 0 0 0 0 0 0 0.1 0"></feColorMatrix><feBlend in2="BackgroundImageFix" result="effect1_dropShadow_11391_45011"></feBlend><feBlend in="SourceGraphic" in2="effect1_dropShadow_11391_45011" result="shape"></feBlend></filter></defs></svg>