<svg width="30" height="30" fill="none" xmlns="http://www.w3.org/2000/svg"><rect width="30" height="30" rx="6" fill="#424242"></rect><g clip-path="url(#btn_graph_svg__a)" filter="url(#btn_graph_svg__b)"><g filter="url(#btn_graph_svg__c)" fill="#B3B3B3"><path d="M14.226 9.557H8.042a.435.435 0 0 0-.435.435v6.184c0 .24.195.435.435.435h2.64l2.414-4.18c.307-.532.96-.792 1.566-.577V9.992a.435.435 0 0 0-.436-.435Z"></path><path d="m18.392 19.43-3.789-6.562a.435.435 0 0 0-.754 0L10.06 19.43a.435.435 0 0 0 .377.653h7.578a.435.435 0 0 0 .377-.653ZM17.663 9.215c-.787 0-1.52.236-2.13.64v2.88l2.43 4.21a3.876 3.876 0 0 0 3.57-3.86 3.875 3.875 0 0 0-3.87-3.87Z"></path></g></g><defs><filter id="btn_graph_svg__b" x="4.393" y="4.929" width="20.354" height="20.354" filterUnits="userSpaceOnUse" color-interpolation-filters="sRGB"><feFlood flood-opacity="0" result="BackgroundImageFix"></feFlood><feColorMatrix in="SourceAlpha" values="0 0 0 0 0 0 0 0 0 0 0 0 0 0 0 0 0 0 127 0" result="hardAlpha"></feColorMatrix><feOffset dy="0.536"></feOffset><feGaussianBlur stdDeviation="0.803"></feGaussianBlur><feComposite in2="hardAlpha" operator="out"></feComposite><feColorMatrix values="0 0 0 0 0 0 0 0 0 0 0 0 0 0 0 0 0 0 0.15 0"></feColorMatrix><feBlend in2="BackgroundImageFix" result="effect1_dropShadow_11391_45320"></feBlend><feBlend in="SourceGraphic" in2="effect1_dropShadow_11391_45320" result="shape"></feBlend></filter><filter id="btn_graph_svg__c" x="6" y="8.144" width="17.14" height="14.083" filterUnits="userSpaceOnUse" color-interpolation-filters="sRGB"><feFlood flood-opacity="0" result="BackgroundImageFix"></feFlood><feColorMatrix in="SourceAlpha" values="0 0 0 0 0 0 0 0 0 0 0 0 0 0 0 0 0 0 127 0" result="hardAlpha"></feColorMatrix><feOffset dy="0.536"></feOffset><feGaussianBlur stdDeviation="0.803"></feGaussianBlur><feComposite in2="hardAlpha" operator="out"></feComposite><feColorMatrix values="0 0 0 0 0 0 0 0 0 0 0 0 0 0 0 0 0 0 0.15 0"></feColorMatrix><feBlend in2="BackgroundImageFix" result="effect1_dropShadow_11391_45320"></feBlend><feBlend in="SourceGraphic" in2="effect1_dropShadow_11391_45320" result="shape"></feBlend></filter><clipPath id="btn_graph_svg__a"><path fill="#fff" transform="translate(6 6)" d="M0 0h17.14v17.14H0z"></path></clipPath></defs></svg>