<svg width="30" height="30" fill="none" xmlns="http://www.w3.org/2000/svg"><rect width="30" height="30" rx="6" fill="#6216FF"></rect><g clip-path="url(#btn_snap_off_svg__a)"><path fill-rule="evenodd" clip-rule="evenodd" d="M9.136 12.171a.715.715 0 0 0 .672-.714V9.83h1.707a.622.622 0 0 0 .585-.465.671.671 0 0 0-.714-.878H9.793V7.207a.678.678 0 1 0-1.35 0v1.236H7.286a.779.779 0 0 0-.871.528v.308a.764.764 0 0 0 .836.528h1.178v1.629a.671.671 0 0 0 .707.735Zm13.986 8.172h-1.429V18.75a.677.677 0 0 0-1.179-.524.679.679 0 0 0-.171.524v1.621h-1.75a.607.607 0 0 0-.586.457.672.672 0 0 0 .715.88h1.642v1.363a.672.672 0 0 0 1.336.093c.011-.09.011-.181 0-.271V21.7h1.436a.636.636 0 0 0 .593-.657.65.65 0 0 0-.607-.7Zm-4.179-10.55a2.984 2.984 0 0 1-.357 0h.036a.664.664 0 0 1 0-1.322c.13-.007.262-.007.393 0a2.671 2.671 0 0 1 2.664 2.143c.051.312.07.628.057.943a.648.648 0 0 1-.714.607.672.672 0 0 1-.657-.643 3.885 3.885 0 0 0-.058-.714 1.335 1.335 0 0 0-1.364-1.014Zm-7.357 10.55a2.998 2.998 0 0 0-.358 0 1.335 1.335 0 0 1-1.364-1.015 3.428 3.428 0 0 1-.057-.664.671.671 0 0 0-.671-.65.65.65 0 0 0-.672.622c-.015.298.001.598.05.893A2.707 2.707 0 0 0 11.2 21.67h.393a.671.671 0 0 0-.007-1.328Zm2.53-11.9h1.942a.65.65 0 0 1 .586.657.665.665 0 0 1-.579.664h-1.929a.621.621 0 0 1-.57-.464.628.628 0 0 1 .213-.714.714.714 0 0 1 .336-.143Zm1.92 11.9h-1.907a.65.65 0 0 0-.6.657.643.643 0 0 0 .593.664h1.928a.593.593 0 0 0 .55-.428.656.656 0 0 0-.564-.893Zm-6.637-3.76a.672.672 0 0 1-.27.053.664.664 0 0 1-.671-.7v-1.672a.678.678 0 1 1 1.35 0v1.657a.671.671 0 0 1-.41.662Zm11.645-3.047a.67.67 0 0 0-.679.714v1.657a.677.677 0 0 0 1.179.524.679.679 0 0 0 .171-.524v-1.671a.673.673 0 0 0-.671-.7Zm-5.716 4.126a.715.715 0 0 1-.477.224.671.671 0 0 1-.708-.736V15.52h-1.178a.764.764 0 0 1-.836-.528v-.307a.778.778 0 0 1 .872-.529h1.157v-1.236a.678.678 0 1 1 1.35 0V14.2H17.1a.671.671 0 0 1 .715.879.622.622 0 0 1-.586.464h-1.708v1.628a.714.714 0 0 1-.193.49Z" fill="#fff" fill-opacity="0.6"></path></g><defs><clipPath id="btn_snap_off_svg__a"><path fill="#fff" transform="translate(6.429 6.429)" d="M0 0h17.143v17.143H0z"></path></clipPath></defs></svg>