<svg width="30" height="30" fill="none" xmlns="http://www.w3.org/2000/svg"><rect width="30" height="30" rx="6" fill="#424242"></rect><g clip-path="url(#btn_add_chat_svg__a)" fill="#B3B3B3"><path d="M15 23c-.514 0-.997-.26-1.34-.712l-1.116-1.485a.352.352 0 0 0-.149-.074h-.372C8.92 20.73 7 19.891 7 15.72v-3.71C7 8.73 8.734 7 12.023 7h5.954C21.266 7 23 8.73 23 12.01v3.71c0 3.28-1.734 5.01-5.023 5.01h-.372c-.06 0-.112.029-.15.073l-1.115 1.485c-.343.452-.826.712-1.34.712ZM12.023 8.113c-2.664 0-3.907 1.24-3.907 3.896v3.71c0 3.355 1.154 3.897 3.907 3.897h.372c.38 0 .812.215 1.042.52l1.117 1.484c.26.341.632.341.893 0l1.116-1.485c.245-.326.632-.519 1.042-.519h.372c2.664 0 3.907-1.24 3.907-3.896v-3.71c0-2.658-1.243-3.897-3.907-3.897h-5.954Z" stroke="#B3B3B3" stroke-width="0.1"></path><path d="M14.721 16.712a.714.714 0 0 0 .672-.714V14.37H17.1a.621.621 0 0 0 .586-.465.671.671 0 0 0-.715-.878H15.38v-1.279a.679.679 0 1 0-1.35 0v1.236H12.87a.779.779 0 0 0-.871.528v.307a.764.764 0 0 0 .836.53h1.178v1.628a.67.67 0 0 0 .707.735Z"></path></g><defs><clipPath id="btn_add_chat_svg__a"><path fill="#fff" transform="translate(6 6)" d="M0 0h18v18H0z"></path></clipPath></defs></svg>